<?xml version="1.0" encoding="UTF-8"?>
<svg id="_レイヤー_1" data-name="レイヤー_1" xmlns="http://www.w3.org/2000/svg" version="1.1" viewBox="0 0 280 115">
  <!-- Generator: Adobe Illustrator 30.2.1, SVG Export Plug-In . SVG Version: 2.1.1 Build 1)  -->
  <path d="M173.43,6.45c0,2.38-2.38,3.29-6.8,3.29-3.11,0-17.95,2.53-36.32,2.78-25.18.35-44.75-2.64-65.49-1.54C27.41,12.97,5.67,29.57,5.67,50.76c0,7.25,4.76,11.22,11.22,11.22,15.86,0,29.46-20.06,31.95-25.72.23-.57.45-.79.68-.79.34,0,.68.23.68.68,0,.34-.11.79-.45,1.59-1.93,5.21-13.71,26.63-31.05,26.63-9.29,0-18.7-5.67-18.7-16.43C0,27.3,27.99,7.24,81.02,7.24c12,0,32.46.63,50.25-.93,21.36-1.87,39.29-5.98,39.78-5.98.91,0,2.38,2.49,2.38,6.12ZM77.85,16.31c1.47,0,4.53,4.19,4.53,5.67,0,.68-.57,1.13-1.59,1.81-10.43,8.38-35.24,42.49-35.24,64.14,0,.79-.11,1.13-.45,1.13s-2.95-1.25-2.95-3.29c0-22.32,29.12-69.46,35.69-69.46Z" fill="#000811"/>
  <path d="M95.86,62.88c.34,0,.45.34.45.45,0,.23-.79,1.02-1.13,1.36,0,0-11.22,12.24-19.94,12.24-5.78,0-8.84-3.63-8.84-9.52,0-10.2,10.2-20.85,15.18-20.85,3.06,0,4.99,3.85,4.99,5.21,0,3.17-6.91,9.18-13.14,13.03-.23.68-.34,2.72-.34,3.51,0,3.51,1.7,6.46,4.99,6.46,6.01,0,17.11-11.44,17.11-11.44,0,0,.45-.45.68-.45ZM84.19,51.89c0-.91-.34-1.25-.91-1.25-1.93,0-6.35,4.42-9.75,12.69,5.1-3.4,10.65-8.84,10.65-11.44Z" fill="#000811"/>
  <path d="M119.21,76.59c-5.89,14.5-20.51,38.07-30.37,38.07-4.31,0-7.14-3.74-7.14-7.03,0-10.31,14.96-19.49,30.03-29.01,3.63-7.25,4.87-12.13,4.87-14.73,0-.23-.11-.45-.34-.45-1.47,0-14.62,14.28-17.79,14.16-2.83-.11-6.46-3.06-6.46-6.12,0-8.16,14.5-23.8,25.61-23.8,2.49,0,6.35,3.85,6.35,6.12,0,1.7-3.06,5.33-3.85,5.33-.23,0-.45-.23-.45-.45,0-.68,2.27-2.83,2.27-4.99,0-1.13-1.02-2.04-1.93-2.04-7.03,0-23.12,14.73-23.12,22.44,0,1.02.79,1.59,1.47,1.59,3.63,0,17-14.28,18.58-14.28,2.04,0,4.87,3.29,4.87,6.01,0,1.59-.68,4.19-1.81,7.25,5.67-3.51,10.88-7.25,14.96-11.33,0,0,.45-.45.79-.45.23,0,.45.34.45.45,0,.23-.91,1.02-1.25,1.36-4.42,4.42-9.97,8.27-15.75,11.9ZM85.44,109.91c7.59,0,18.92-16.43,25.5-29.35-13.26,8.39-27.2,17.79-27.2,27.08,0,1.59.79,2.27,1.7,2.27Z" fill="#000811"/>
  <path d="M163.63,81.92c.23,0,.45.23.45.45,0,.45-.45.68-1.02.68-4.87,0-10.31-4.31-10.31-11.67,0-3.85.34-5.78.34-5.78-5.67,5.55-13.6,13.71-16.2,13.71s-6.57-3.06-6.57-6.57c0-9.07,15.41-24.7,25.16-24.7,4.42,0,8.73,3.97,8.73,6.46,0,1.81-.57,2.95-.91,2.95s-1.02-.68-1.02-1.13.57-.79.57-2.15c0-.79-1.25-1.81-2.04-1.81-10.65,0-25.38,15.86-25.38,23.68,0,.91.45,1.47,1.47,1.47,2.15,0,10.31-7.82,15.75-13.26,3.4-3.4,5.89-5.67,6.91-5.67s4.08,2.95,4.08,4.76c0,1.36-4.99,4.19-4.99,12.35,0,3.63,2.27,5.78,4.99,6.23Z" fill="#000811"/>
  <path d="M194.11,76.48c-3.63,0-6.8-2.49-6.8-6.8,0-2.15.34-4.08.34-4.08-5.67,5.55-13.6,13.71-16.2,13.71s-6.57-3.06-6.57-6.57c0-9.07,15.41-24.7,25.16-24.7,4.42,0,8.73,3.97,8.73,6.46,0,1.81-.57,2.95-.91,2.95s-1.02-.68-1.02-1.13.57-.79.57-2.15c0-.79-1.25-1.81-2.04-1.81-10.65,0-25.38,15.86-25.38,23.68,0,.91.45,1.47,1.47,1.47,2.15,0,10.31-7.82,15.75-13.26,3.4-3.4,5.89-5.67,6.91-5.67s4.08,2.95,4.08,4.76c0,1.36-4.99,5.1-4.99,8.61,0,1.47,1.13,2.15,2.49,2.15,5.55,0,16.32-10.77,16.32-10.77.23-.23.45-.45.68-.45.34,0,.45.34.45.45,0,.23-.79,1.02-1.13,1.36,0,0-11.56,11.78-17.9,11.78Z" fill="#000811"/>
  <path d="M223.23,68.32c0-2.38,17.34-11.44,17.34-15.86,0-.23,0-.45-.23-.45-3.97,0-17.11,10.43-23.91,19.04-3.97,5.1-3.06,6.57-3.97,6.57-1.02,0-2.95-1.36-2.95-2.27,0-19.72,29.35-57.23,37.85-57.23,2.27,0,4.87,2.27,4.87,5.1,0,8.39-24.59,30.6-33.54,38.76,0,0-1.59,2.72-2.72,7.37,4.42-5.67,19.72-19.49,24.02-19.49,3.29,0,4.99,3.74,4.99,6.57,0,6.23-17.45,13.14-17.45,14.62,0,.79,4.76,3.63,8.61,3.63,6.91,0,18.02-11.33,18.02-11.33,0,0,.45-.45.68-.45.34,0,.45.34.45.45,0,.23-.79,1.02-1.13,1.36,0,0-12.69,13.82-18.24,13.82-4.99,0-12.69-7.7-12.69-10.2ZM250.65,23.67c0-.34-.34-.79-.91-.79-6.46,0-24.02,22.21-30.14,36.49,7.37-6.57,31.05-28.67,31.05-35.69Z" fill="#000811"/>
  <path d="M250.65,71.72c0-4.99,9.86-17.56,12.01-22.89.34-.68.79-1.13,1.36-1.13,2.27,0,4.76,2.61,4.76,4.65s-12.92,16.66-12.92,21.53c0,1.36.79,1.93,1.81,1.93,1.25,0,2.61-.57,3.85-1.36.68-.45,1.25-.91,1.47-.91s.45.23.45.45c0,.34-.57.68-1.36,1.25-1.81,1.25-4.08,2.38-5.89,2.38s-5.55-2.27-5.55-5.89ZM280,32.63c0,.79-1.47,3.17-2.38,3.63-.68.34-2.15.79-3.17,1.13-2.15.68-2.83,1.93-3.29,1.93-.34,0-.68-.23-.68-.68,0-2.72,4.31-8.38,4.31-11.1,0-.34.23-.45.45-.45,1.81,0,4.76,3.97,4.76,5.55Z" fill="#000811"/>
</svg>